<?xml version="1.0" standalone="no"?>
<!DOCTYPE svg PUBLIC "-//W3C//DTD SVG 1.1//EN" "http://www.w3.org/Graphics/SVG/1.1/DTD/svg11.dtd"><svg t="1763141498642"
  class="icon" viewBox="0 0 1304 1024" version="1.1" xmlns="http://www.w3.org/2000/svg" p-id="1721"
  xmlns:xlink="http://www.w3.org/1999/xlink" width="254.6875" height="200">
  <path
    d="M0.001 446.490361a171.093893 145.438909 90 1 0 290.877818 0A171.093893 145.438909 90 1 0 0.001 446.490361zM1126.924296 768.927159a140.307912 171.093893 12.07 1 0 71.553955-334.62279 140.307912 171.093893 12.07 1 0-71.553955 334.62279zM353.070779 191.000521a190.999881 149.507907 90 1 0 299.016813 0 190.999881 149.507907 90 1 0-299.016813 0zM887.858445 431.110371a149.507907 190.999881 6.71 1 0 44.633972-379.381763 149.507907 190.999881 6.71 1 0-44.633972 379.381763zM962.073399 786.025149c-10.703993 162.069899-167.200895 249.032844-352.36178 236.735852s-328.917794-118.898926-318.479801-281.057825 173.306892-264.956834 354.662778-271.41483 187.549883 37.686976 326.883796 153.577904 316.179803 315.736803z"
    p-id="1722"></path>
</svg>